<?xml version="1.0"?>
<svg xmlns="http://www.w3.org/2000/svg" viewBox="0 0 512 512" width="512" height="512"><g id="Snowflake-3" data-name="Snowflake"><g id="Outline"><path d="M248.48,146.73a8,8,0,0,0,15.04,0l32-88a8,8,0,0,0-15.041-5.46L256,120.59,232.9,57.07l29.22-43.83a8,8,0,0,0-13.31-8.88l-31.47,47.2a8.033,8.033,0,0,0-.86,7.17Z"/><path d="M273.22,41.82a8,8,0,1,0-6.66-3.56A7.948,7.948,0,0,0,273.22,41.82Z"/><path d="M275.47,421.55a8.016,8.016,0,0,0-4.781,10.26,8,8,0,0,0,14.771.64,7.946,7.946,0,0,0,.269-6.11,8.011,8.011,0,0,0-10.259-4.79Z"/><path d="M292.439,449.34a8.014,8.014,0,0,0-11.1,2.22L256,489.58l-23.1-34.65L256,391.41l3.75,10.32a8,8,0,1,0,15.04-5.46l-11.27-31a8,8,0,0,0-15.04,0l-32,88a8.033,8.033,0,0,0,.86,7.17l32,48a8.01,8.01,0,0,0,13.32,0l32-48A8.024,8.024,0,0,0,292.439,449.34Z"/><path d="M320,312V282.51l20.854-20.853a8,8,0,0,0,0-11.314L320,229.49V200a8,8,0,0,0-8-8H282.51l-20.853-20.853a8,8,0,0,0-11.314,0L229.49,192H200a8,8,0,0,0-8,8v29.491l-20.853,20.852a8,8,0,0,0,0,11.314L192,282.509V312a8,8,0,0,0,8,8h29.491l20.852,20.853a8,8,0,0,0,11.314,0L282.51,320H312A8,8,0,0,0,320,312Zm-31.061-33.7L304,284.542V304H279.2a8,8,0,0,0-5.657,2.343L256,323.882,242.238,310.12l6.242-15.06a8,8,0,1,0-14.78-6.12L227.457,304H208V279.2a8,8,0,0,0-2.343-5.657L188.118,256l13.757-13.757,15.065,6.237a7.883,7.883,0,0,0,3.06.61,8,8,0,0,0,3.06-15.39L208,227.457V208h24.8a8,8,0,0,0,5.657-2.343L256,188.118l13.757,13.757L263.52,216.94a8,8,0,0,0,4.33,10.45,7.88,7.88,0,0,0,3.06.61,7.971,7.971,0,0,0,7.39-4.94L284.542,208H304v24.8a8,8,0,0,0,2.343,5.656L323.883,256l-13.758,13.757L295.06,263.52a7.883,7.883,0,0,0-3.06-.61,8,8,0,0,0-3.061,15.39Z"/><path d="M315.542,88.728,286.492,160.6a8,8,0,1,0,14.834,6l28.864-71.41,33.749-19.093a8,8,0,0,0,3.939-8.356L360.641,26.8a8,8,0,0,0-11.818-5.57L312.643,41.7a8,8,0,0,0-3.939,8.356Zm31.312-48,4.284,24.222-21.41,12.112L325.444,52.84Z"/><path d="M147.257,76.092l33.75,19.092L209.87,166.6a8,8,0,1,0,14.834-6L195.655,88.728l6.837-38.673a8,8,0,0,0-3.939-8.355L162.372,21.232a8,8,0,0,0-11.817,5.57l-7.237,40.934A8,8,0,0,0,147.257,76.092Zm17.084-35.363,21.41,12.111-4.282,24.223-21.41-12.112Z"/><path d="M363.939,435.908,330.19,416.816l-28.954-71.635a8,8,0,0,0-14.834,6l29.14,72.095L308.7,461.944a8,8,0,0,0,3.939,8.356l36.18,20.468a8,8,0,0,0,11.818-5.57l7.237-40.934A8,8,0,0,0,363.939,435.908Zm-17.085,35.363-21.41-12.111,4.284-24.223,21.41,12.112Z"/><path d="M195.655,423.272l29.139-72.095a8,8,0,1,0-14.834-6l-28.953,71.635-33.75,19.092a8,8,0,0,0-3.939,8.356l7.237,40.934a8,8,0,0,0,11.817,5.57L198.553,470.3a8,8,0,0,0,3.939-8.355Zm-31.314,48-4.282-24.222,21.41-12.112,4.282,24.223Z"/><path d="M43.082,202.271a8,8,0,0,0,8.693,3.124L89.141,195.03l71.428,30.308a8,8,0,1,0,6.25-14.728l-71.886-30.5-22.512-32.18a8,8,0,0,0-8.693-3.124L23.671,155.915a8,8,0,0,0-4.417,12.294Zm19.472-40.538,14.1,20.157-23.7,6.575-14.1-20.156Z"/><path d="M468.115,309.729a8,8,0,0,0-8.694-3.124L422.055,316.97l-71.428-30.308a8,8,0,1,0-6.25,14.728l71.886,30.5,22.511,32.181a8,8,0,0,0,8.695,3.124l40.056-11.112a8,8,0,0,0,4.417-12.294Zm-19.472,40.538-14.1-20.157,23.705-6.575,14.1,20.156Z"/><path d="M166.819,301.39a8,8,0,0,0-6.25-14.728L89.141,316.97,51.775,306.605a8,8,0,0,0-8.693,3.124L19.254,343.791a8,8,0,0,0,4.417,12.294L63.728,367.2a8,8,0,0,0,8.693-3.124l22.512-32.18ZM62.554,350.267l-23.7-6.576,14.1-20.156,23.7,6.575Z"/><path d="M416.263,180.108l-71.886,30.5a8,8,0,1,0,6.25,14.728l71.428-30.308L459.421,205.4a8,8,0,0,0,8.694-3.124l23.827-34.062a8,8,0,0,0-4.417-12.294L447.469,144.8a8,8,0,0,0-8.695,3.124Zm32.38-18.375,23.7,6.576-14.1,20.156-23.705-6.575Z"/><path d="M83.87,226.13a8,8,0,1,0,2.73.48A8.036,8.036,0,0,0,83.87,226.13Z"/><path d="M56,296a7.886,7.886,0,0,0,2.73-.48l88-32a8,8,0,0,0,0-15.04l-30.06-10.93a8,8,0,0,0-5.46,15.04l9.38,3.41L57.07,279.1,22.42,256l38.02-25.34a8,8,0,0,0-8.88-13.32l-48,32a8.01,8.01,0,0,0,0,13.32l48,32A8.066,8.066,0,0,0,56,296Z"/><path d="M508.439,249.34l-48-32a8,8,0,0,0-8.879,13.32L489.58,256l-34.65,23.1L391.41,256l7.5-2.73a8,8,0,0,0-5.46-15.04l-28.18,10.25a8,8,0,0,0,0,15.04l87.99,32a7.97,7.97,0,0,0,2.73.48,8.069,8.069,0,0,0,4.449-1.34l48-32a8.008,8.008,0,0,0,0-13.32Z"/><path d="M426.25,226.81a8.005,8.005,0,0,0,0,16.01,7.739,7.739,0,0,0,2.729-.49,7.992,7.992,0,0,0,4.791-10.25A8.036,8.036,0,0,0,426.25,226.81Z"/><path d="M84.11,138.78a8.027,8.027,0,0,0,4.46,5.68l84.85,39.59a7.868,7.868,0,0,0,3.38.75,7.994,7.994,0,0,0,7.25-11.38L144.46,88.57a8.034,8.034,0,0,0-7.26-4.62,8.01,8.01,0,0,0-7.25,11.38h.01l30.29,64.92L99,131.67,88.67,80.01a8.018,8.018,0,0,0-7.84-6.43,7.606,7.606,0,0,0-1.57.16,8.009,8.009,0,0,0-6.28,9.41Z"/><path d="M109.5,94.57a8.384,8.384,0,0,0,1.58.16,8,8,0,0,0,1.56-15.85,8.384,8.384,0,0,0-1.58-.16,8,8,0,0,0-1.56,15.85Z"/><path d="M392.27,369.83a8,8,0,0,0,3.379-15.25,7.882,7.882,0,0,0-3.369-.75,8,8,0,0,0-3.39,15.25A7.9,7.9,0,0,0,392.27,369.83Z"/><path d="M427.89,373.23a8.015,8.015,0,0,0-7.83-6.44,8.4,8.4,0,0,0-1.581.16,8.008,8.008,0,0,0-6.279,9.41l8.96,44.8L380.33,413l-28.58-61.25,8.14,3.8a7.933,7.933,0,0,0,3.38.75,8,8,0,0,0,3.39-15.25l-28.08-13.1a8.007,8.007,0,0,0-9.04,1.59,8.018,8.018,0,0,0-1.59,9.04l39.59,84.85a8.005,8.005,0,0,0,5.68,4.46l56.57,11.32a8.345,8.345,0,0,0,1.569.15,8,8,0,0,0,7.851-9.57Z"/><path d="M119.72,353.83a7.933,7.933,0,0,0-3.38.75,8,8,0,0,0,3.39,15.25,8,8,0,0,0,7.25-11.38A8.034,8.034,0,0,0,119.72,353.83Z"/><path d="M184.05,338.58a7.994,7.994,0,0,0-7.25-11.38,7.9,7.9,0,0,0-3.38.75l-28.08,13.1a8,8,0,0,0,6.77,14.5l8.14-3.8L131.67,413l-40.84,8.16,8.97-44.8a8,8,0,0,0-6.28-9.41,8.384,8.384,0,0,0-1.58-.16,8.023,8.023,0,0,0-7.83,6.43L72.79,429.79a8,8,0,0,0,7.85,9.57,8.348,8.348,0,0,0,1.57-.15l56.56-11.32a8.024,8.024,0,0,0,5.69-4.46Z"/><path d="M358.45,126.98a7.885,7.885,0,0,0,3.369.75,8,8,0,0,0,3.391-15.25,7.889,7.889,0,0,0-3.37-.75,8,8,0,0,0-3.39,15.25Z"/><path d="M366.95,93.52a8,8,0,0,0,7.83,6.43,8.355,8.355,0,0,0,1.579-.15l44.8-8.96L413,131.67l-61.25,28.58,3.8-8.14a8.008,8.008,0,0,0-3.87-10.63,7.917,7.917,0,0,0-3.38-.76,8.046,8.046,0,0,0-7.25,4.62l-13.1,28.08a7.994,7.994,0,0,0,7.25,11.38,7.9,7.9,0,0,0,3.38-.75l84.85-39.59a8.032,8.032,0,0,0,4.46-5.68l11.32-56.57a8.007,8.007,0,0,0-9.42-9.42L373.22,84.11A8,8,0,0,0,366.95,93.52Z"/><circle cx="256" cy="256" r="8"/></g></g></svg>
