<svg xmlns="http://www.w3.org/2000/svg" xmlns:xlink="http://www.w3.org/1999/xlink" version="1.1" width="256" height="256" viewBox="0 0 256 256" xml:space="preserve">

<defs>
</defs>
<g style="stroke: none; stroke-width: 0; stroke-dasharray: none; stroke-linecap: butt; stroke-linejoin: miter; stroke-miterlimit: 10; fill: none; fill-rule: nonzero; opacity: 1;" transform="translate(1.4065934065934016 1.4065934065934016) scale(2.81 2.81)" >
	<path d="M 63.81 28.988 c -3.266 -3.126 -2.914 -13.382 -2.07 -17.136 c -4.917 2.83 -8.836 7.566 -9.312 13.964 c -1.246 -2.191 -1.867 -5.523 -1.419 -10.605 C 51.165 5.554 45.855 1.545 42.854 1 C 45 9.021 41.629 17.257 36.619 20.686 c -1.583 -6.479 -5.423 -9.515 -10.29 -10.982 c 1.104 1.961 4.769 9.729 2.134 18.914 l 6.747 19.39 l 29.18 2.42 L 63.81 28.988 z" style="stroke: none; stroke-width: 1; stroke-dasharray: none; stroke-linecap: butt; stroke-linejoin: miter; stroke-miterlimit: 10; fill: rgb(255,199,41); fill-rule: nonzero; opacity: 1;" transform=" matrix(1 0 0 1 0 0) " stroke-linecap="round" />
	<path d="M 37.325 43.19 c -3.721 -4.852 -4.95 -10.842 -4.279 -18.82 c -3.393 0.963 -7.871 7.677 -6.851 15.159 c 0.469 2.822 -0.282 5.353 -1.02 7.624 c -0.343 -4.6 -2.172 -8.005 -5.707 -10.039 c 0.435 2.703 0.742 4.976 0 7.364 c -1.268 3.71 -2.032 9.024 -0.289 14.243 l 15.472 2.69 l 8.063 -14.905 L 37.325 43.19 z" style="stroke: none; stroke-width: 1; stroke-dasharray: none; stroke-linecap: butt; stroke-linejoin: miter; stroke-miterlimit: 10; fill: rgb(255,130,110); fill-rule: nonzero; opacity: 1;" transform=" matrix(1 0 0 1 0 0) " stroke-linecap="round" />
	<path d="M 69.475 46.506 c -0.747 -1.314 -1.12 -6.737 -0.851 -9.785 c 0.851 -7.521 -2.06 -11.842 -4.89 -12.645 c 0.56 6.655 -0.636 11.88 -3.74 15.928 c -0.949 -3.886 -3.252 -5.706 -6.171 -6.586 c 0.662 1.176 2.001 7.46 -0.761 11.563 l -2.399 4.516 l 12.079 5.805 L 69.475 46.506 z" style="stroke: none; stroke-width: 1; stroke-dasharray: none; stroke-linecap: butt; stroke-linejoin: miter; stroke-miterlimit: 10; fill: rgb(255,130,110); fill-rule: nonzero; opacity: 1;" transform=" matrix(1 0 0 1 0 0) " stroke-linecap="round" />
	<path d="M 52.206 71.585 c 2.086 3.659 6.022 6.126 10.535 6.126 c 6.693 0 12.118 -5.426 12.118 -12.118 c 0 -3.856 -1.803 -7.289 -4.61 -9.508 c 0.7 -1.246 1.104 -2.68 1.104 -4.211 c 0 -4.757 -3.856 -8.613 -8.613 -8.613 c -3.942 0 -7.265 2.648 -8.288 6.262" style="stroke: none; stroke-width: 1; stroke-dasharray: none; stroke-linecap: butt; stroke-linejoin: miter; stroke-miterlimit: 10; fill: rgb(252,215,112); fill-rule: nonzero; opacity: 1;" transform=" matrix(1 0 0 1 0 0) " stroke-linecap="round" />
	<path d="M 39.567 72.941 c -1.925 4.571 -6.447 7.78 -11.718 7.78 c -7.019 0 -12.709 -5.69 -12.709 -12.709 s 5.69 -12.709 12.709 -12.709 c 2.158 0 4.19 0.538 5.97 1.486" style="stroke: none; stroke-width: 1; stroke-dasharray: none; stroke-linecap: butt; stroke-linejoin: miter; stroke-miterlimit: 10; fill: rgb(252,215,112); fill-rule: nonzero; opacity: 1;" transform=" matrix(1 0 0 1 0 0) " stroke-linecap="round" />
	<path d="M 44.87 29.201 c 4.975 6.079 11.467 20.416 11.467 33.574 c 0 6.333 -5.134 11.467 -11.467 11.467 s -11.467 -5.134 -11.467 -11.467 C 33.403 49.617 39.895 35.28 44.87 29.201 z" style="stroke: none; stroke-width: 1; stroke-dasharray: none; stroke-linecap: butt; stroke-linejoin: miter; stroke-miterlimit: 10; fill: rgb(180,221,127); fill-rule: nonzero; opacity: 1;" transform=" matrix(1 0 0 1 0 0) " stroke-linecap="round" />
	<path d="M 63.811 29.988 c -0.249 0 -0.498 -0.092 -0.691 -0.277 c -3.115 -2.981 -3.247 -11.085 -2.716 -15.802 c -2.957 2.147 -6.529 5.955 -6.979 11.982 c -0.032 0.439 -0.349 0.805 -0.777 0.901 c -0.434 0.099 -0.871 -0.1 -1.089 -0.481 c -1.476 -2.594 -1.981 -6.253 -1.546 -11.188 c 0.113 -7.15 -3.054 -11.157 -5.796 -12.589 c 1.44 8.231 -2.374 15.788 -7.033 18.977 c -0.271 0.185 -0.617 0.225 -0.922 0.109 c -0.307 -0.118 -0.536 -0.378 -0.614 -0.697 c -1.122 -4.59 -3.48 -7.631 -7.347 -9.413 c 1.417 3.418 3.266 9.917 1.124 17.383 c -0.152 0.531 -0.705 0.837 -1.237 0.686 c -0.531 -0.152 -0.838 -0.707 -0.686 -1.237 c 2.627 -9.156 -1.242 -16.723 -2.044 -18.147 c -0.201 -0.355 -0.165 -0.797 0.09 -1.116 c 0.255 -0.319 0.679 -0.45 1.069 -0.333 c 5.404 1.629 8.871 4.982 10.558 10.229 c 3.912 -3.517 6.605 -10.646 4.713 -17.718 c -0.089 -0.331 -0.001 -0.684 0.23 -0.936 c 0.232 -0.252 0.578 -0.365 0.914 -0.306 c 3.696 0.671 9.136 5.276 8.976 15.212 c -0.229 2.604 -0.182 4.826 0.139 6.663 c 1.361 -4.469 4.495 -8.259 9.094 -10.905 c 0.345 -0.197 0.773 -0.173 1.092 0.062 c 0.319 0.235 0.47 0.637 0.383 1.024 c -0.92 4.093 -0.94 13.585 1.786 16.194 c 0.399 0.382 0.413 1.015 0.031 1.414 C 64.337 29.885 64.073 29.988 63.811 29.988 z" style="stroke: none; stroke-width: 1; stroke-dasharray: none; stroke-linecap: butt; stroke-linejoin: miter; stroke-miterlimit: 10; fill: rgb(0,0,0); fill-rule: nonzero; opacity: 1;" transform=" matrix(1 0 0 1 0 0) " stroke-linecap="round" />
	<path d="M 62.741 90 c -0.553 0 -1 -0.447 -1 -1 V 59.629 c 0 -0.553 0.447 -1 1 -1 s 1 0.447 1 1 V 89 C 63.741 89.553 63.294 90 62.741 90 z" style="stroke: none; stroke-width: 1; stroke-dasharray: none; stroke-linecap: butt; stroke-linejoin: miter; stroke-miterlimit: 10; fill: rgb(0,0,0); fill-rule: nonzero; opacity: 1;" transform=" matrix(1 0 0 1 0 0) " stroke-linecap="round" />
	<path d="M 62.741 72.223 c -0.256 0 -0.512 -0.098 -0.707 -0.293 c -0.391 -0.391 -0.391 -1.023 0 -1.414 l 3.298 -3.298 c 0.391 -0.391 1.023 -0.391 1.414 0 c 0.391 0.391 0.391 1.023 0 1.414 l -3.298 3.298 C 63.253 72.125 62.997 72.223 62.741 72.223 z" style="stroke: none; stroke-width: 1; stroke-dasharray: none; stroke-linecap: butt; stroke-linejoin: miter; stroke-miterlimit: 10; fill: rgb(0,0,0); fill-rule: nonzero; opacity: 1;" transform=" matrix(1 0 0 1 0 0) " stroke-linecap="round" />
	<path d="M 62.741 68.444 c -0.256 0 -0.512 -0.098 -0.707 -0.293 l -3.298 -3.298 c -0.391 -0.391 -0.391 -1.023 0 -1.414 s 1.023 -0.391 1.414 0 l 3.298 3.298 c 0.391 0.391 0.391 1.023 0 1.414 C 63.253 68.346 62.997 68.444 62.741 68.444 z" style="stroke: none; stroke-width: 1; stroke-dasharray: none; stroke-linecap: butt; stroke-linejoin: miter; stroke-miterlimit: 10; fill: rgb(0,0,0); fill-rule: nonzero; opacity: 1;" transform=" matrix(1 0 0 1 0 0) " stroke-linecap="round" />
	<path d="M 62.741 78.711 c -4.704 0 -9.073 -2.541 -11.404 -6.631 c -0.273 -0.479 -0.105 -1.091 0.374 -1.364 c 0.479 -0.273 1.09 -0.105 1.364 0.374 c 1.976 3.467 5.679 5.621 9.666 5.621 c 6.131 0 11.118 -4.987 11.118 -11.118 c 0 -3.419 -1.542 -6.599 -4.23 -8.724 c -0.386 -0.305 -0.492 -0.845 -0.252 -1.274 c 0.639 -1.135 0.976 -2.422 0.976 -3.722 c 0 -4.197 -3.415 -7.612 -7.612 -7.612 c -3.391 0 -6.403 2.275 -7.326 5.534 c -0.15 0.531 -0.709 0.842 -1.234 0.689 c -0.531 -0.15 -0.84 -0.703 -0.689 -1.234 c 1.165 -4.115 4.969 -6.989 9.25 -6.989 c 5.3 0 9.612 4.313 9.612 9.612 c 0 1.363 -0.294 2.716 -0.854 3.956 c 2.781 2.49 4.36 6.004 4.36 9.764 C 75.86 72.826 69.975 78.711 62.741 78.711 z" style="stroke: none; stroke-width: 1; stroke-dasharray: none; stroke-linecap: butt; stroke-linejoin: miter; stroke-miterlimit: 10; fill: rgb(0,0,0); fill-rule: nonzero; opacity: 1;" transform=" matrix(1 0 0 1 0 0) " stroke-linecap="round" />
	<path d="M 27.849 90 c -0.552 0 -1 -0.447 -1 -1 V 66.199 c 0 -0.553 0.448 -1 1 -1 s 1 0.447 1 1 V 89 C 28.849 89.553 28.402 90 27.849 90 z" style="stroke: none; stroke-width: 1; stroke-dasharray: none; stroke-linecap: butt; stroke-linejoin: miter; stroke-miterlimit: 10; fill: rgb(0,0,0); fill-rule: nonzero; opacity: 1;" transform=" matrix(1 0 0 1 0 0) " stroke-linecap="round" />
	<path d="M 27.849 75.741 c -0.256 0 -0.512 -0.098 -0.707 -0.293 c -0.391 -0.391 -0.391 -1.023 0 -1.414 l 2.43 -2.43 c 0.391 -0.391 1.023 -0.391 1.414 0 c 0.391 0.391 0.391 1.023 0 1.414 l -2.43 2.43 C 28.361 75.644 28.105 75.741 27.849 75.741 z" style="stroke: none; stroke-width: 1; stroke-dasharray: none; stroke-linecap: butt; stroke-linejoin: miter; stroke-miterlimit: 10; fill: rgb(0,0,0); fill-rule: nonzero; opacity: 1;" transform=" matrix(1 0 0 1 0 0) " stroke-linecap="round" />
	<path d="M 27.849 72.957 c -0.256 0 -0.512 -0.098 -0.707 -0.293 l -2.43 -2.43 c -0.391 -0.391 -0.391 -1.023 0 -1.414 c 0.391 -0.391 1.023 -0.391 1.414 0 l 2.43 2.43 c 0.391 0.391 0.391 1.023 0 1.414 C 28.361 72.86 28.105 72.957 27.849 72.957 z" style="stroke: none; stroke-width: 1; stroke-dasharray: none; stroke-linecap: butt; stroke-linejoin: miter; stroke-miterlimit: 10; fill: rgb(0,0,0); fill-rule: nonzero; opacity: 1;" transform=" matrix(1 0 0 1 0 0) " stroke-linecap="round" />
	<path d="M 27.849 81.721 c -7.559 0 -13.709 -6.149 -13.709 -13.709 s 6.15 -13.709 13.709 -13.709 c 2.246 0 4.473 0.555 6.44 1.604 c 0.487 0.261 0.671 0.866 0.412 1.354 c -0.261 0.486 -0.867 0.669 -1.353 0.412 c -1.679 -0.896 -3.581 -1.369 -5.499 -1.369 c -6.457 0 -11.709 5.253 -11.709 11.709 s 5.252 11.709 11.709 11.709 c 4.725 0 8.962 -2.813 10.796 -7.168 c 0.214 -0.51 0.8 -0.747 1.31 -0.534 c 0.509 0.215 0.748 0.801 0.534 1.31 C 38.342 78.427 33.381 81.721 27.849 81.721 z" style="stroke: none; stroke-width: 1; stroke-dasharray: none; stroke-linecap: butt; stroke-linejoin: miter; stroke-miterlimit: 10; fill: rgb(0,0,0); fill-rule: nonzero; opacity: 1;" transform=" matrix(1 0 0 1 0 0) " stroke-linecap="round" />
	<path d="M 44.87 90 c -0.552 0 -1 -0.447 -1 -1 V 53.35 c 0 -0.553 0.448 -1 1 -1 s 1 0.447 1 1 V 89 C 45.87 89.553 45.422 90 44.87 90 z" style="stroke: none; stroke-width: 1; stroke-dasharray: none; stroke-linecap: butt; stroke-linejoin: miter; stroke-miterlimit: 10; fill: rgb(0,0,0); fill-rule: nonzero; opacity: 1;" transform=" matrix(1 0 0 1 0 0) " stroke-linecap="round" />
	<path d="M 44.87 69.508 c -0.256 0 -0.512 -0.098 -0.707 -0.293 c -0.391 -0.391 -0.391 -1.023 0 -1.414 l 4.312 -4.312 c 0.391 -0.391 1.023 -0.391 1.414 0 c 0.391 0.391 0.391 1.023 0 1.414 l -4.312 4.312 C 45.382 69.41 45.126 69.508 44.87 69.508 z" style="stroke: none; stroke-width: 1; stroke-dasharray: none; stroke-linecap: butt; stroke-linejoin: miter; stroke-miterlimit: 10; fill: rgb(0,0,0); fill-rule: nonzero; opacity: 1;" transform=" matrix(1 0 0 1 0 0) " stroke-linecap="round" />
	<path d="M 44.87 64.567 c -0.256 0 -0.512 -0.098 -0.707 -0.293 l -4.312 -4.312 c -0.391 -0.391 -0.391 -1.023 0 -1.414 c 0.391 -0.391 1.023 -0.391 1.414 0 l 4.312 4.312 c 0.391 0.391 0.391 1.023 0 1.414 C 45.382 64.469 45.126 64.567 44.87 64.567 z" style="stroke: none; stroke-width: 1; stroke-dasharray: none; stroke-linecap: butt; stroke-linejoin: miter; stroke-miterlimit: 10; fill: rgb(0,0,0); fill-rule: nonzero; opacity: 1;" transform=" matrix(1 0 0 1 0 0) " stroke-linecap="round" />
	<path d="M 44.87 75.241 c -6.874 0 -12.467 -5.593 -12.467 -12.467 c 0 -13.739 6.838 -28.275 11.693 -34.207 c 0.38 -0.464 1.168 -0.464 1.548 0 c 4.855 5.933 11.693 20.468 11.693 34.207 C 57.337 69.649 51.744 75.241 44.87 75.241 z M 44.87 30.832 c -4.586 6.218 -10.467 19.412 -10.467 31.943 c 0 5.772 4.695 10.467 10.467 10.467 s 10.467 -4.695 10.467 -10.467 C 55.337 50.244 49.457 37.05 44.87 30.832 z" style="stroke: none; stroke-width: 1; stroke-dasharray: none; stroke-linecap: butt; stroke-linejoin: miter; stroke-miterlimit: 10; fill: rgb(0,0,0); fill-rule: nonzero; opacity: 1;" transform=" matrix(1 0 0 1 0 0) " stroke-linecap="round" />
	<path d="M 19.179 59.721 c -0.418 0 -0.809 -0.265 -0.949 -0.684 c -2.062 -6.176 -0.703 -11.976 0.292 -14.883 c 0.651 -2.098 0.395 -4.176 -0.041 -6.882 c -0.061 -0.38 0.102 -0.763 0.419 -0.982 c 0.317 -0.218 0.732 -0.236 1.066 -0.043 c 2.524 1.453 4.296 3.583 5.296 6.36 c 0.11 -0.948 0.112 -1.914 -0.054 -2.915 c -1.118 -8.194 3.814 -15.221 7.564 -16.285 c 0.314 -0.089 0.655 -0.02 0.909 0.19 c 0.253 0.209 0.388 0.529 0.361 0.856 c -0.671 7.985 0.585 13.576 4.076 18.128 c 0.336 0.438 0.253 1.066 -0.185 1.402 c -0.438 0.336 -1.066 0.253 -1.402 -0.185 c -3.49 -4.551 -4.968 -10.212 -4.602 -17.711 c -2.563 1.975 -5.572 7.225 -4.743 13.306 c 0.488 2.934 -0.223 5.492 -1.06 8.069 c -0.147 0.453 -0.592 0.744 -1.071 0.684 c -0.475 -0.058 -0.842 -0.442 -0.877 -0.919 c -0.258 -3.464 -1.371 -6.077 -3.388 -7.923 c 0.217 1.928 0.203 3.638 -0.367 5.471 c -0.921 2.695 -2.172 8.011 -0.295 13.63 c 0.175 0.523 -0.108 1.09 -0.632 1.265 C 19.391 59.704 19.284 59.721 19.179 59.721 z" style="stroke: none; stroke-width: 1; stroke-dasharray: none; stroke-linecap: butt; stroke-linejoin: miter; stroke-miterlimit: 10; fill: rgb(0,0,0); fill-rule: nonzero; opacity: 1;" transform=" matrix(1 0 0 1 0 0) " stroke-linecap="round" />
	<path d="M 69.476 47.506 c -0.348 0 -0.686 -0.182 -0.87 -0.505 c -0.935 -1.642 -1.238 -7.421 -0.979 -10.368 c 0.605 -5.353 -0.837 -9.203 -2.786 -10.836 c 0.231 6.105 -1.101 10.964 -4.054 14.815 c -0.235 0.306 -0.624 0.452 -1 0.37 c -0.376 -0.079 -0.674 -0.367 -0.766 -0.741 c -0.593 -2.428 -1.737 -4.06 -3.623 -5.098 c 0.558 2.734 0.684 7.142 -1.508 10.397 c -0.308 0.458 -0.929 0.578 -1.388 0.271 c -0.458 -0.309 -0.579 -0.93 -0.271 -1.388 c 2.452 -3.643 1.292 -9.496 0.719 -10.514 c -0.2 -0.355 -0.165 -0.797 0.091 -1.116 c 0.254 -0.319 0.678 -0.451 1.069 -0.333 c 2.988 0.901 5.028 2.645 6.188 5.306 c 2.107 -3.571 2.905 -8.045 2.438 -13.607 c -0.028 -0.327 0.106 -0.647 0.36 -0.856 c 0.252 -0.208 0.592 -0.279 0.908 -0.19 c 3.344 0.948 6.525 5.646 5.61 13.719 c -0.283 3.226 0.19 8.234 0.728 9.177 c 0.273 0.48 0.105 1.091 -0.374 1.364 C 69.814 47.464 69.644 47.506 69.476 47.506 z" style="stroke: none; stroke-width: 1; stroke-dasharray: none; stroke-linecap: butt; stroke-linejoin: miter; stroke-miterlimit: 10; fill: rgb(0,0,0); fill-rule: nonzero; opacity: 1;" transform=" matrix(1 0 0 1 0 0) " stroke-linecap="round" />
	<path d="M 74.86 90 H 15.14 c -0.552 0 -1 -0.447 -1 -1 s 0.448 -1 1 -1 H 74.86 c 0.553 0 1 0.447 1 1 S 75.412 90 74.86 90 z" style="stroke: none; stroke-width: 1; stroke-dasharray: none; stroke-linecap: butt; stroke-linejoin: miter; stroke-miterlimit: 10; fill: rgb(0,0,0); fill-rule: nonzero; opacity: 1;" transform=" matrix(1 0 0 1 0 0) " stroke-linecap="round" />
</g>
</svg>