<?xml version="1.0" standalone="no"?>
<!DOCTYPE svg PUBLIC "-//W3C//DTD SVG 20010904//EN"
 "http://www.w3.org/TR/2001/REC-SVG-20010904/DTD/svg10.dtd">
<svg version="1.0" xmlns="http://www.w3.org/2000/svg"
 width="93.000000pt" height="72.000000pt" viewBox="0 0 93.000000 72.000000"
 preserveAspectRatio="xMidYMid meet">
<metadata>
Created by potrace 1.16, written by Peter Selinger 2001-2019
</metadata>
<g transform="translate(0.000000,72.000000) scale(0.100000,-0.100000)"
fill="#000000" stroke="none">
<path d="M455 697 c-166 -55 -277 -236 -246 -404 6 -31 13 -59 16 -62 3 -3 31
0 63 7 97 20 245 102 410 227 84 63 148 107 143 97 -19 -34 -194 -213 -266
-271 -85 -68 -203 -130 -263 -138 -47 -6 -49 -9 -26 -34 16 -18 20 -17 103 26
111 58 189 117 355 271 75 69 136 122 136 119 0 -12 -156 -203 -224 -274 -80
-83 -156 -144 -235 -189 l-54 -30 31 -16 c30 -15 30 -15 93 33 81 62 158 142
298 309 61 73 111 130 111 127 0 -13 -121 -217 -171 -287 -28 -40 -81 -103
-117 -140 l-66 -68 72 0 c58 0 83 5 123 25 68 35 125 95 160 168 26 55 29 73
29 158 0 87 -3 102 -30 156 -36 71 -111 146 -178 176 -58 26 -206 34 -267 14z"/>
</g>
</svg>
