<!-- icon666.com - MILLIONS vector ICONS FREE --><svg id="Layer_1" viewBox="0 0 256 256" xmlns="http://www.w3.org/2000/svg"><g><g><path d="m243.089 110.08-97.169-97.169c-9.88-9.881-25.959-9.882-35.839 0l-97.17 97.169c-9.881 9.881-9.881 25.958 0 35.839l97.169 97.169c4.94 4.941 11.43 7.411 17.92 7.411s12.979-2.47 17.92-7.411l97.169-97.169c9.881-9.88 9.881-25.958 0-35.839z" fill="#725246"></path></g><g><path d="m128 252.5c-7.312 0-14.178-2.84-19.334-7.997l-97.169-97.169c-10.661-10.661-10.661-28.007 0-38.668l97.169-97.169c5.156-5.157 12.022-7.997 19.333-7.997h.001c7.311 0 14.177 2.84 19.333 7.998l97.169 97.169c5.157 5.157 7.997 12.023 7.997 19.334s-2.84 14.177-7.997 19.334l-97.169 97.169c-5.156 5.156-12.022 7.996-19.333 7.996zm0-245c-6.243 0-12.104 2.424-16.505 6.826l-97.17 97.169c-9.101 9.102-9.101 23.91 0 33.012l97.169 97.169c4.401 4.401 10.263 6.825 16.506 6.825s12.104-2.424 16.505-6.825l97.169-97.169c4.401-4.401 6.825-10.263 6.825-16.506s-2.424-12.104-6.825-16.506l-97.169-97.169c-4.401-4.402-10.262-6.826-16.505-6.826z" fill="#422618"></path></g><g><path d="m118.764 226.38-91.212-91.212c-3.959-3.959-3.959-10.377 0-14.336l91.212-91.212c3.959-3.959 10.377-3.959 14.336 0l91.212 91.212c3.959 3.959 3.959 10.377 0 14.336l-91.212 91.212c-3.959 3.958-10.377 3.958-14.336 0z" fill="#fedbb0"></path></g><g><path d="m224.312 120.832-91.212-91.212c-3.959-3.959-10.377-3.959-14.336 0l-2.832 2.832 88.38 88.379c3.959 3.959 3.959 10.377 0 14.336l-88.38 88.379 2.832 2.832c3.959 3.959 10.377 3.959 14.336 0l91.212-91.212c3.958-3.957 3.958-10.375 0-14.334z" fill="#e8c197"></path></g><g><g><path d="m105.5 185.709c0-12.177 7.988-20.03 12.962-25.069 8.857-8.974 7.284-19.185 7.284-19.185s17.36 14.924 20.087 27.303c2.608 11.84-3.952 18.422-3.952 18.422s3.057-1.18 4.958-3.294c2.421-2.693 3.291-5.955 3.291-5.955s1.012 2.448-.315 10.824c-.943 5.953-4.036 10.408-7.666 13.687-8.822 7.969-22.58 7.198-30.575-1.6-3.425-3.769-6.074-8.748-6.074-15.133z" fill="#cc628e"></path></g><g><path d="m126.827 197.621c1.918 0 3.786-.618 5.31-1.784 2.917-2.232 5.881-6.018 4.871-12.525-1.818-11.722-13.92-15.3-13.92-15.3s3.007 4.123 1.13 7.601c-2.017 3.739-6.533 5.183-6.969 10.459-.321 3.885 1.37 6.848 3.326 8.933 1.609 1.714 3.902 2.616 6.252 2.616z" fill="#f47da5"></path></g></g><g><g><path d="m139.25 46.495h-12.747c-.708 0-1.349.416-1.638 1.062l-16.708 37.44c-.529 1.186.339 2.524 1.638 2.524h18.19l-9.574 27.097c-.339.959.928 1.652 1.553.849l27.653-35.537c.917-1.178.077-2.895-1.415-2.895h-18.249l12.924-27.996c.55-1.188-.318-2.544-1.627-2.544z" fill="#e59a5c"></path></g></g><g><g><path d="m61.564 117.425 32.453-7.045s6.847 8.067 2.777 18.541c-3.41 8.775-17.147 15.687-18.201 22.882-.577 3.945 4.508 10.437 3.483 11.269-1.024.832-10.544-6.455-11.949-15.331s5.219-15.031 3.922-19.754c-1.295-4.724-12.485-10.562-12.485-10.562z" fill="#b2b0ad"></path></g><g><path d="m67.811 133.973c-.767 0-1.508-.015-2.223-.045-6.517-.274-9.942-1.76-10.472-4.54-.49-2.567 1.716-5.008 6.746-7.461.992-.484 2.19-.072 2.674.92s.072 2.19-.92 2.674c-3.073 1.5-4.209 2.637-4.497 3.113 1.543 1.364 10.802 2.336 25.245-.419s22.693-7.066 23.626-8.904c-.419-.318-1.779-.919-4.875-1.202-1.1-.1-1.911-1.073-1.811-2.173.101-1.101 1.083-1.915 2.173-1.811 5.254.479 8.039 1.921 8.514 4.412.53 2.78-2.108 5.421-8.066 8.076-4.913 2.189-11.593 4.153-18.811 5.529-6.259 1.196-12.304 1.831-17.303 1.831zm40.303-14.544h.01z" fill="#827f7e"></path></g><g><path d="m68.155 147.785c-.942 0-1.842-.029-2.694-.086-5.202-.354-8.079-1.792-8.553-4.273-.542-2.839 2.323-5.55 8.514-8.058 1.022-.413 2.19.08 2.604 1.104.415 1.023-.08 2.189-1.104 2.604-4.043 1.637-5.59 3.018-5.985 3.592 1.423 1.083 8.472 1.901 19.067-.119 10.583-2.019 16.834-5.37 17.77-6.904-.023-.016-.05-.032-.079-.05-.948-.567-1.255-1.796-.688-2.743s1.796-1.257 2.743-.688c1.435.859 1.908 1.941 2.053 2.697 1.104 5.791-12.711 10.027-21.049 11.617-4.498.857-8.868 1.307-12.599 1.307zm29.786-12.006h.01z" fill="#827f7e"></path></g><g><path d="m69.017 159.625c-.743 0-1.451-.027-2.115-.082-3.72-.305-5.799-1.475-6.181-3.476-.347-1.818.858-3.515 3.583-5.043.965-.54 2.183-.197 2.723.766.541.963.198 2.183-.766 2.723-.5.281-.853.521-1.101.715 1.608.463 5.529.711 11.113-.355 5.815-1.109 9.43-2.878 10.616-3.885-.583-.624-.721-1.579-.274-2.359.548-.958 1.769-1.292 2.729-.743 1.278.731 1.7 1.693 1.83 2.372.381 2.001-1.122 3.854-4.467 5.507-2.53 1.25-5.969 2.328-9.684 3.037-2.836.541-5.604.823-8.006.823zm18.426-8.212h.01z" fill="#827f7e"></path></g><g><ellipse cx="77.51" cy="113.529" fill="#a3a09d" rx="16.805" ry="3.814" transform="matrix(.982 -.187 .187 .982 -19.901 16.535)"></ellipse></g></g><g><g fill="#8dc8d8"><path d="m163.613 142.484-7.36 16.427c-.452 1.008 0 2.191 1.007 2.643.266.119.543.175.817.175.764 0 1.494-.44 1.826-1.183l8.093-18.063c-1.65.001-3.141.001-4.383.001z"></path><path d="m173.613 142.484-7.36 16.427c-.452 1.008 0 2.191 1.007 2.643.266.119.543.175.817.175.764 0 1.494-.44 1.826-1.183l8.093-18.063c-1.463.001-2.938.001-4.383.001z"></path><path d="m183.613 142.484-7.36 16.427c-.452 1.008 0 2.191 1.007 2.643.266.119.543.175.817.175.764 0 1.494-.44 1.826-1.183l8.093-18.063c-1.312.001-2.796.001-4.383.001z"></path></g><g><g><path d="m193.918 120.828c.012-.262.04-.519.04-.784 0-9.229-7.482-16.711-16.711-16.711-7.54 0-13.909 4.996-15.989 11.857-.356-.028-.712-.054-1.075-.054-7.552 0-13.674 6.122-13.674 13.674s6.122 13.674 13.674 13.674h32.952c5.991 0 10.848-4.857 10.848-10.848-.002-5.726-4.442-10.404-10.065-10.808z" fill="#6ea6af"></path></g></g></g></g></svg>