<svg xmlns="http://www.w3.org/2000/svg" xmlns:xlink="http://www.w3.org/1999/xlink" version="1.1" width="256" height="256" viewBox="0 0 256 256" xml:space="preserve">

<defs>
</defs>
<g style="stroke: none; stroke-width: 0; stroke-dasharray: none; stroke-linecap: butt; stroke-linejoin: miter; stroke-miterlimit: 10; fill: none; fill-rule: nonzero; opacity: 1;" transform="translate(1.4065934065934016 1.4065934065934016) scale(2.81 2.81)" >
	<polygon points="77.03,32.86 81.19,35.77 82.5,30.87 87.56,30.43 85.41,25.83 89,22.24 84.4,20.1 84.84,15.04 79.94,16.35 77.03,12.19 74.12,16.35 69.21,15.04 69.66,20.1 65.06,22.24 68.65,25.83 66.5,30.43 71.56,30.87 72.87,35.77 " style="stroke: none; stroke-width: 1; stroke-dasharray: none; stroke-linecap: butt; stroke-linejoin: miter; stroke-miterlimit: 10; fill: rgb(255,234,167); fill-rule: nonzero; opacity: 1;" transform="  matrix(1 0 0 1 0 0) "/>
	<circle cx="77.026" cy="23.986" r="4.006" style="stroke: none; stroke-width: 1; stroke-dasharray: none; stroke-linecap: butt; stroke-linejoin: miter; stroke-miterlimit: 10; fill: rgb(255,199,41); fill-rule: nonzero; opacity: 1;" transform="  matrix(1 0 0 1 0 0) "/>
	<path d="M 0 55.935 v 4.697 v 2.52 v 14.116 C 2.445 75.763 5.89 75 8.334 76.504 s 4.89 1.504 7.334 0 s 4.89 -1.504 7.334 0 s 4.89 1.504 7.334 0 h -0.012 c 2.445 -1.504 4.89 -1.504 7.334 0 s 4.89 1.504 7.334 0 c 2.445 -1.504 4.89 -1.504 7.334 0 s 4.89 1.504 7.334 0 s 4.89 -1.504 7.334 0 s 4.89 1.504 7.334 0 s 4.89 -1.504 7.334 0 s 5.89 1.063 8.334 -0.441 V 63.152 v -2.41 v -4.807 H 0 z" style="stroke: none; stroke-width: 1; stroke-dasharray: none; stroke-linecap: butt; stroke-linejoin: miter; stroke-miterlimit: 10; fill: rgb(105,214,244); fill-rule: nonzero; opacity: 1;" transform=" matrix(1 0 0 1 0 0) " stroke-linecap="round" />
	<path d="M 80.433 55.935 l -8.338 -8.55 l -10.55 -2 l -11.741 -21.1 h -7.828 l -8.508 13.273 l -12.252 2 L 8.964 55.935 h 31.609 v 6.309 c 0 2.656 2.153 4.808 4.808 4.808 h 0 c 2.656 0 4.808 -2.153 4.808 -4.808 v 10.215 c 0 2.656 2.153 4.808 4.808 4.808 h 0 c 2.656 0 4.808 -2.153 4.808 -4.808 V 60.27 c 0 2.656 2.153 4.808 4.808 4.808 h 0 c 2.656 0 4.808 -2.153 4.808 -4.808 v -4.335 H 80.433 z" style="stroke: none; stroke-width: 1; stroke-dasharray: none; stroke-linecap: butt; stroke-linejoin: miter; stroke-miterlimit: 10; fill: rgb(79,193,233); fill-rule: nonzero; opacity: 1;" transform=" matrix(1 0 0 1 0 0) " stroke-linecap="round" />
	<polygon points="9.57,55.94 23.62,45.88 38.98,42.22 45.98,24.28 41.98,24.28 33.47,37.56 21.22,39.56 " style="stroke: none; stroke-width: 1; stroke-dasharray: none; stroke-linecap: butt; stroke-linejoin: miter; stroke-miterlimit: 10; fill: rgb(117,214,248); fill-rule: nonzero; opacity: 1;" transform="  matrix(1 0 0 1 0 0) "/>
	<path d="M 77.028 28.99 c -2.76 0 -5.006 -2.246 -5.006 -5.006 c 0 -2.76 2.246 -5.005 5.006 -5.005 s 5.005 2.246 5.005 5.005 C 82.033 26.744 79.788 28.99 77.028 28.99 z M 77.028 20.979 c -1.657 0 -3.006 1.348 -3.006 3.005 s 1.349 3.006 3.006 3.006 s 3.005 -1.349 3.005 -3.006 S 78.686 20.979 77.028 20.979 z" style="stroke: none; stroke-width: 1; stroke-dasharray: none; stroke-linecap: butt; stroke-linejoin: miter; stroke-miterlimit: 10; fill: rgb(0,0,0); fill-rule: nonzero; opacity: 1;" transform=" matrix(1 0 0 1 0 0) " stroke-linecap="round" />
	<path d="M 72.87 36.774 c -0.115 0 -0.23 -0.02 -0.342 -0.06 c -0.307 -0.112 -0.54 -0.366 -0.624 -0.682 l -1.132 -4.228 l -4.359 -0.38 c -0.325 -0.028 -0.616 -0.213 -0.779 -0.496 s -0.178 -0.627 -0.04 -0.923 l 1.852 -3.966 l -3.097 -3.093 c -0.23 -0.231 -0.334 -0.56 -0.277 -0.881 c 0.057 -0.321 0.267 -0.595 0.563 -0.732 l 3.967 -1.848 l -0.383 -4.36 c -0.028 -0.325 0.104 -0.644 0.354 -0.854 c 0.249 -0.209 0.59 -0.285 0.901 -0.2 l 4.227 1.134 l 2.51 -3.586 c 0.188 -0.268 0.493 -0.427 0.819 -0.427 l 0 0 c 0.326 0 0.632 0.159 0.819 0.427 l 2.509 3.586 l 4.227 -1.134 c 0.312 -0.085 0.651 -0.01 0.901 0.2 c 0.25 0.21 0.382 0.528 0.354 0.854 l -0.383 4.36 l 3.967 1.848 c 0.296 0.138 0.506 0.411 0.563 0.732 c 0.057 0.322 -0.047 0.65 -0.277 0.881 L 86.61 26.04 l 1.852 3.966 c 0.138 0.295 0.123 0.64 -0.04 0.923 s -0.454 0.468 -0.779 0.496 l -4.359 0.38 l -1.132 4.228 c -0.084 0.315 -0.317 0.57 -0.624 0.682 c -0.309 0.111 -0.647 0.066 -0.916 -0.121 l -3.583 -2.512 l -3.584 2.512 C 73.273 36.713 73.072 36.774 72.87 36.774 z M 68.011 29.557 l 3.634 0.317 c 0.419 0.037 0.771 0.331 0.879 0.738 l 0.943 3.524 l 2.987 -2.094 c 0.346 -0.241 0.803 -0.241 1.148 0 l 2.986 2.094 l 0.943 -3.524 c 0.108 -0.407 0.46 -0.701 0.879 -0.738 l 3.634 -0.317 l -1.543 -3.306 c -0.178 -0.381 -0.099 -0.833 0.199 -1.13 l 2.581 -2.578 l -3.307 -1.541 c -0.382 -0.177 -0.611 -0.575 -0.574 -0.994 l 0.319 -3.634 l -3.523 0.945 c -0.406 0.11 -0.837 -0.048 -1.078 -0.393 l -2.091 -2.989 l -2.092 2.989 c -0.241 0.345 -0.67 0.503 -1.078 0.393 l -3.523 -0.945 l 0.319 3.634 c 0.037 0.419 -0.192 0.816 -0.574 0.994 l -3.307 1.541 l 2.581 2.578 c 0.298 0.297 0.377 0.749 0.199 1.13 L 68.011 29.557 z" style="stroke: none; stroke-width: 1; stroke-dasharray: none; stroke-linecap: butt; stroke-linejoin: miter; stroke-miterlimit: 10; fill: rgb(0,0,0); fill-rule: nonzero; opacity: 1;" transform=" matrix(1 0 0 1 0 0) " stroke-linecap="round" />
	<path d="M 54.998 78.268 c -3.203 0 -5.809 -2.605 -5.809 -5.809 v -5.832 c -1.021 0.888 -2.353 1.426 -3.808 1.426 c -3.203 0 -5.809 -2.605 -5.809 -5.809 v -5.31 H 8.964 c -0.378 0 -0.725 -0.214 -0.894 -0.553 c -0.169 -0.338 -0.133 -0.743 0.093 -1.046 l 12.252 -16.378 c 0.155 -0.207 0.384 -0.346 0.64 -0.388 l 11.812 -1.928 l 8.267 -12.897 c 0.184 -0.287 0.501 -0.46 0.842 -0.46 h 7.828 c 0.363 0 0.697 0.197 0.874 0.514 l 11.514 20.691 l 10.09 1.914 c 0.201 0.038 0.386 0.138 0.529 0.284 l 8.338 8.55 c 0.281 0.288 0.362 0.716 0.206 1.087 c -0.156 0.37 -0.52 0.611 -0.922 0.611 h -10.01 v 3.335 c 0 3.203 -2.605 5.809 -5.809 5.809 c -1.455 0 -2.787 -0.538 -3.808 -1.426 v 7.807 C 60.807 75.662 58.201 78.268 54.998 78.268 z M 51.189 62.244 v 10.215 c 0 2.1 1.709 3.809 3.809 3.809 s 3.809 -1.709 3.809 -3.809 V 60.27 c 0 -0.553 0.447 -1 1 -1 s 1 0.447 1 1 c 0 2.1 1.708 3.809 3.808 3.809 s 3.809 -1.709 3.809 -3.809 v -4.335 c 0 -0.553 0.447 -1 1 -1 h 8.638 l -6.462 -6.626 l -10.24 -1.941 c -0.291 -0.056 -0.543 -0.237 -0.688 -0.497 L 49.216 25.284 h -6.693 L 34.31 38.097 c -0.153 0.239 -0.4 0.402 -0.681 0.447 l -11.854 1.935 L 10.961 54.935 h 29.612 c 0.552 0 1 0.447 1 1 v 6.31 c 0 2.1 1.708 3.809 3.809 3.809 s 3.808 -1.709 3.808 -3.809 c 0 -0.553 0.447 -1 1 -1 S 51.189 61.691 51.189 62.244 z" style="stroke: none; stroke-width: 1; stroke-dasharray: none; stroke-linecap: butt; stroke-linejoin: miter; stroke-miterlimit: 10; fill: rgb(0,0,0); fill-rule: nonzero; opacity: 1;" transform=" matrix(1 0 0 1 0 0) " stroke-linecap="round" />
	<path d="M 8.551 77.645 c -0.179 0 -0.36 -0.048 -0.523 -0.148 c -2.187 -1.347 -4.315 -1.348 -6.503 0 c -0.471 0.289 -1.087 0.142 -1.376 -0.327 c -0.29 -0.471 -0.143 -1.087 0.327 -1.376 c 2.854 -1.755 5.748 -1.756 8.601 0 c 0.47 0.289 0.617 0.905 0.327 1.376 C 9.215 77.476 8.887 77.645 8.551 77.645 z" style="stroke: none; stroke-width: 1; stroke-dasharray: none; stroke-linecap: butt; stroke-linejoin: miter; stroke-miterlimit: 10; fill: rgb(0,0,0); fill-rule: nonzero; opacity: 1;" transform=" matrix(1 0 0 1 0 0) " stroke-linecap="round" />
	<path d="M 12.328 78.813 c -1.437 0 -2.874 -0.438 -4.3 -1.316 c -0.471 -0.289 -0.617 -0.905 -0.328 -1.376 c 0.289 -0.471 0.905 -0.617 1.375 -0.327 c 2.188 1.346 4.315 1.346 6.504 0 c 0.468 -0.29 1.086 -0.144 1.375 0.327 s 0.143 1.087 -0.328 1.376 C 15.202 78.374 13.765 78.813 12.328 78.813 z" style="stroke: none; stroke-width: 1; stroke-dasharray: none; stroke-linecap: butt; stroke-linejoin: miter; stroke-miterlimit: 10; fill: rgb(0,0,0); fill-rule: nonzero; opacity: 1;" transform=" matrix(1 0 0 1 0 0) " stroke-linecap="round" />
	<path d="M 23.655 77.645 c -0.179 0 -0.36 -0.048 -0.523 -0.148 c -2.188 -1.348 -4.316 -1.348 -6.503 0 c -0.472 0.289 -1.087 0.142 -1.376 -0.327 c -0.29 -0.471 -0.143 -1.087 0.327 -1.376 c 2.854 -1.756 5.749 -1.755 8.601 0 c 0.47 0.289 0.617 0.905 0.327 1.376 C 24.319 77.476 23.991 77.645 23.655 77.645 z" style="stroke: none; stroke-width: 1; stroke-dasharray: none; stroke-linecap: butt; stroke-linejoin: miter; stroke-miterlimit: 10; fill: rgb(0,0,0); fill-rule: nonzero; opacity: 1;" transform=" matrix(1 0 0 1 0 0) " stroke-linecap="round" />
	<path d="M 27.432 78.813 c -1.437 0 -2.874 -0.438 -4.3 -1.316 c -0.471 -0.289 -0.617 -0.905 -0.328 -1.376 c 0.289 -0.471 0.906 -0.617 1.375 -0.327 c 2.188 1.346 4.315 1.346 6.504 0 c 0.469 -0.29 1.085 -0.144 1.375 0.327 c 0.29 0.471 0.143 1.087 -0.328 1.376 C 30.306 78.374 28.869 78.813 27.432 78.813 z" style="stroke: none; stroke-width: 1; stroke-dasharray: none; stroke-linecap: butt; stroke-linejoin: miter; stroke-miterlimit: 10; fill: rgb(0,0,0); fill-rule: nonzero; opacity: 1;" transform=" matrix(1 0 0 1 0 0) " stroke-linecap="round" />
	<path d="M 8.551 68.343 c -0.179 0 -0.36 -0.048 -0.523 -0.148 c -2.187 -1.347 -4.315 -1.348 -6.503 0 c -0.471 0.289 -1.087 0.142 -1.376 -0.327 c -0.29 -0.471 -0.143 -1.087 0.327 -1.376 c 2.854 -1.755 5.748 -1.756 8.601 0 c 0.47 0.289 0.617 0.905 0.327 1.376 C 9.215 68.174 8.887 68.343 8.551 68.343 z" style="stroke: none; stroke-width: 1; stroke-dasharray: none; stroke-linecap: butt; stroke-linejoin: miter; stroke-miterlimit: 10; fill: rgb(0,0,0); fill-rule: nonzero; opacity: 1;" transform=" matrix(1 0 0 1 0 0) " stroke-linecap="round" />
	<path d="M 12.328 69.511 c -1.437 0 -2.874 -0.438 -4.3 -1.316 c -0.471 -0.289 -0.617 -0.905 -0.328 -1.376 c 0.289 -0.471 0.905 -0.617 1.375 -0.327 c 2.188 1.346 4.315 1.346 6.504 0 c 0.468 -0.29 1.086 -0.144 1.375 0.327 s 0.143 1.087 -0.328 1.376 C 15.202 69.072 13.765 69.511 12.328 69.511 z" style="stroke: none; stroke-width: 1; stroke-dasharray: none; stroke-linecap: butt; stroke-linejoin: miter; stroke-miterlimit: 10; fill: rgb(0,0,0); fill-rule: nonzero; opacity: 1;" transform=" matrix(1 0 0 1 0 0) " stroke-linecap="round" />
	<path d="M 23.655 68.343 c -0.179 0 -0.36 -0.048 -0.523 -0.148 c -2.188 -1.348 -4.316 -1.348 -6.503 0 c -0.472 0.289 -1.087 0.142 -1.376 -0.327 c -0.29 -0.471 -0.143 -1.087 0.327 -1.376 c 2.854 -1.756 5.749 -1.755 8.601 0 c 0.47 0.289 0.617 0.905 0.327 1.376 C 24.319 68.174 23.991 68.343 23.655 68.343 z" style="stroke: none; stroke-width: 1; stroke-dasharray: none; stroke-linecap: butt; stroke-linejoin: miter; stroke-miterlimit: 10; fill: rgb(0,0,0); fill-rule: nonzero; opacity: 1;" transform=" matrix(1 0 0 1 0 0) " stroke-linecap="round" />
	<path d="M 81.447 77.645 c -0.179 0 -0.359 -0.048 -0.523 -0.148 c -2.188 -1.348 -4.316 -1.348 -6.504 0 c -0.474 0.289 -1.088 0.142 -1.376 -0.327 c -0.289 -0.471 -0.143 -1.087 0.327 -1.376 c 2.854 -1.756 5.748 -1.756 8.602 0 c 0.47 0.289 0.616 0.905 0.327 1.376 C 82.111 77.476 81.783 77.645 81.447 77.645 z" style="stroke: none; stroke-width: 1; stroke-dasharray: none; stroke-linecap: butt; stroke-linejoin: miter; stroke-miterlimit: 10; fill: rgb(0,0,0); fill-rule: nonzero; opacity: 1;" transform=" matrix(1 0 0 1 0 0) " stroke-linecap="round" />
	<path d="M 85.224 78.813 c -1.437 0 -2.873 -0.438 -4.3 -1.316 c -0.47 -0.289 -0.616 -0.905 -0.327 -1.376 s 0.902 -0.617 1.376 -0.327 c 2.188 1.347 4.316 1.346 6.503 0 c 0.472 -0.29 1.087 -0.144 1.376 0.327 c 0.29 0.471 0.143 1.087 -0.327 1.376 C 88.098 78.374 86.66 78.813 85.224 78.813 z" style="stroke: none; stroke-width: 1; stroke-dasharray: none; stroke-linecap: butt; stroke-linejoin: miter; stroke-miterlimit: 10; fill: rgb(0,0,0); fill-rule: nonzero; opacity: 1;" transform=" matrix(1 0 0 1 0 0) " stroke-linecap="round" />
	<path d="M 85.224 69.511 c -1.437 0 -2.873 -0.438 -4.3 -1.316 c -0.47 -0.289 -0.616 -0.905 -0.327 -1.376 s 0.902 -0.617 1.376 -0.327 c 2.188 1.348 4.316 1.346 6.503 0 c 0.472 -0.29 1.087 -0.144 1.376 0.327 c 0.29 0.471 0.143 1.087 -0.327 1.376 C 88.098 69.072 86.66 69.511 85.224 69.511 z" style="stroke: none; stroke-width: 1; stroke-dasharray: none; stroke-linecap: butt; stroke-linejoin: miter; stroke-miterlimit: 10; fill: rgb(0,0,0); fill-rule: nonzero; opacity: 1;" transform=" matrix(1 0 0 1 0 0) " stroke-linecap="round" />
	<path d="M 89 56.935 h -8.567 c -0.553 0 -1 -0.447 -1 -1 s 0.447 -1 1 -1 H 89 c 0.553 0 1 0.447 1 1 S 89.553 56.935 89 56.935 z" style="stroke: none; stroke-width: 1; stroke-dasharray: none; stroke-linecap: butt; stroke-linejoin: miter; stroke-miterlimit: 10; fill: rgb(0,0,0); fill-rule: nonzero; opacity: 1;" transform=" matrix(1 0 0 1 0 0) " stroke-linecap="round" />
	<path d="M 9.567 56.935 H 1 c -0.552 0 -1 -0.447 -1 -1 s 0.448 -1 1 -1 h 8.246 l 13.788 -9.865 c 0.105 -0.075 0.224 -0.129 0.35 -0.159 l 14.851 -3.539 l 6.81 -17.451 c 0.201 -0.514 0.781 -0.769 1.295 -0.568 c 0.515 0.201 0.77 0.781 0.568 1.295 l -7 17.939 c -0.119 0.306 -0.381 0.534 -0.7 0.609 l -15.169 3.614 l -13.889 9.938 C 9.979 56.869 9.775 56.935 9.567 56.935 z" style="stroke: none; stroke-width: 1; stroke-dasharray: none; stroke-linecap: butt; stroke-linejoin: miter; stroke-miterlimit: 10; fill: rgb(0,0,0); fill-rule: nonzero; opacity: 1;" transform=" matrix(1 0 0 1 0 0) " stroke-linecap="round" />
</g>
</svg>