<svg height="512" viewBox="0 0 512 512" width="512" xmlns="http://www.w3.org/2000/svg"><g id="Snowflake-2" data-name="Snowflake"><g id="Flat"><g fill="#80deea"><path d="m286.157 26.343a8 8 0 0 0 -11.314 0l-18.843 18.844-18.843-18.844a8 8 0 0 0 -11.314 11.314l22.157 22.157v20.186a8 8 0 0 0 16 0v-20.186l22.157-22.157a8 8 0 0 0 0-11.314z"/><circle cx="256" cy="8" r="8"/><path d="m232 120a7.974 7.974 0 0 1 -5.657-2.343l-24.5-24.5a8 8 0 0 1 11.314-11.314l24.5 24.5a8 8 0 0 1 -5.657 13.657z"/><path d="m280 120a8 8 0 0 1 -5.657-13.657l24.5-24.5a8 8 0 0 1 11.314 11.314l-24.5 24.5a7.974 7.974 0 0 1 -5.657 2.343z"/><path d="m286.157 474.343-22.157-22.157v-20.186a8 8 0 0 0 -16 0v20.186l-22.157 22.157a8 8 0 0 0 11.314 11.314l18.843-18.844 18.843 18.844a8 8 0 0 0 11.314-11.314z"/><circle cx="256" cy="504" r="8"/><path d="m207.5 432.5a8 8 0 0 1 -5.657-13.657l24.5-24.5a8 8 0 1 1 11.314 11.314l-24.5 24.5a7.974 7.974 0 0 1 -5.657 2.343z"/><path d="m304.5 432.5a7.974 7.974 0 0 1 -5.657-2.343l-24.5-24.5a8 8 0 0 1 11.314-11.314l24.5 24.5a8 8 0 0 1 -5.657 13.657z"/><path d="m80 264h-24a8 8 0 0 1 0-16h24a8 8 0 0 1 0 16z"/><path d="m32 288.5a8 8 0 0 1 -5.657-13.657l18.844-18.843-18.844-18.843a8 8 0 0 1 11.314-11.314l24.5 24.5a8 8 0 0 1 0 11.314l-24.5 24.5a7.974 7.974 0 0 1 -5.657 2.343z"/><circle cx="8" cy="256" r="8"/><path d="m87.5 312.5a8 8 0 0 1 -5.657-13.657l24.5-24.5a8 8 0 0 1 11.314 11.314l-24.5 24.5a7.974 7.974 0 0 1 -5.657 2.343z"/><path d="m112 240a7.974 7.974 0 0 1 -5.657-2.343l-24.5-24.5a8 8 0 0 1 11.314-11.314l24.5 24.5a8 8 0 0 1 -5.657 13.657z"/><path d="m128 328a8 8 0 0 1 -5.657-13.657l40-40a8 8 0 1 1 11.314 11.314l-40 40a7.974 7.974 0 0 1 -5.657 2.343z"/><path d="m168 240a7.974 7.974 0 0 1 -5.657-2.343l-40-40a8 8 0 1 1 11.314-11.314l40 40a8 8 0 0 1 -5.657 13.657z"/><path d="m376 328a7.974 7.974 0 0 1 -5.657-2.343l-40-40a8 8 0 0 1 11.314-11.314l40 40a8 8 0 0 1 -5.657 13.657z"/><path d="m336 240a8 8 0 0 1 -5.657-13.657l40-40a8 8 0 0 1 11.314 11.314l-40 40a7.974 7.974 0 0 1 -5.657 2.343z"/><path d="m280 184a8 8 0 0 1 -5.657-13.657l40-40a8 8 0 0 1 11.314 11.314l-40 40a7.974 7.974 0 0 1 -5.657 2.343z"/><path d="m232 184a7.974 7.974 0 0 1 -5.657-2.343l-40-40a8 8 0 0 1 11.314-11.314l40 40a8 8 0 0 1 -5.657 13.657z"/><path d="m320 384a7.974 7.974 0 0 1 -5.657-2.343l-40-40a8 8 0 0 1 11.314-11.314l40 40a8 8 0 0 1 -5.657 13.657z"/><path d="m192 384a8 8 0 0 1 -5.657-13.657l40-40a8 8 0 1 1 11.314 11.314l-40 40a7.974 7.974 0 0 1 -5.657 2.343z"/><path d="m456 264h-24a8 8 0 0 1 0-16h24a8 8 0 0 1 0 16z"/><path d="m480 288.5a7.974 7.974 0 0 1 -5.657-2.343l-24.5-24.5a8 8 0 0 1 0-11.314l24.5-24.5a8 8 0 0 1 11.314 11.314l-18.844 18.843 18.844 18.843a8 8 0 0 1 -5.657 13.657z"/><circle cx="504" cy="256" r="8"/><path d="m424.5 312.5a7.974 7.974 0 0 1 -5.657-2.343l-24.5-24.5a8 8 0 0 1 11.314-11.314l24.5 24.5a8 8 0 0 1 -5.657 13.657z"/><path d="m400 240a8 8 0 0 1 -5.657-13.657l24.5-24.5a8 8 0 0 1 11.314 11.314l-24.5 24.5a7.974 7.974 0 0 1 -5.657 2.343z"/></g><circle cx="312" cy="200" fill="#4dd0e1" r="8"/><circle cx="200" cy="200" fill="#4dd0e1" r="8"/><circle cx="312" cy="312" fill="#4dd0e1" r="8"/><circle cx="200" cy="312" fill="#4dd0e1" r="8"/><path d="m181.657 170.343-21.657-21.657v-44.686a8 8 0 0 0 -16 0v28.686l-18.343-18.343a8 8 0 0 0 -11.314 11.314l18.343 18.343h-28.686a8 8 0 0 0 0 16h44.686l21.657 21.657a8 8 0 0 0 11.314-11.314z" fill="#4dd0e1"/><path d="m408 144h-28.686l18.343-18.343a8 8 0 0 0 -11.314-11.314l-18.343 18.343v-28.686a8 8 0 0 0 -16 0v44.686l-21.657 21.657a8 8 0 0 0 11.314 11.314l21.657-21.657h44.686a8 8 0 0 0 0-16z" fill="#4dd0e1"/><path d="m181.657 330.343a8 8 0 0 0 -11.314 0l-21.657 21.657h-44.686a8 8 0 0 0 0 16h28.686l-18.343 18.343a8 8 0 0 0 11.314 11.314l18.343-18.343v28.686a8 8 0 0 0 16 0v-44.686l21.657-21.657a8 8 0 0 0 0-11.314z" fill="#4dd0e1"/><path d="m408 352h-44.686l-21.657-21.657a8 8 0 0 0 -11.314 11.314l21.657 21.657v44.686a8 8 0 0 0 16 0v-28.686l18.343 18.343a8 8 0 0 0 11.314-11.314l-18.343-18.343h28.686a8 8 0 0 0 0-16z" fill="#4dd0e1"/><path d="m56 464a8 8 0 0 1 -7.761-9.94l16-64a8 8 0 0 1 7.761-6.06h48a8 8 0 0 1 8 8v48a8 8 0 0 1 -6.06 7.761l-64 16a7.976 7.976 0 0 1 -1.94.239z" fill="#b2ebf2"/><path d="m456 464a7.976 7.976 0 0 1 -1.94-.239l-64-16a8 8 0 0 1 -6.06-7.761v-48a8 8 0 0 1 8-8h48a8 8 0 0 1 7.761 6.06l16 64a8 8 0 0 1 -7.761 9.94z" fill="#b2ebf2"/><path d="m256 240a8 8 0 0 1 -6.4-3.2l-24-32a8 8 0 0 1 -1.6-4.8v-88a8 8 0 0 1 1.6-4.8l24-32a8 8 0 0 1 12.8 0l24 32a8 8 0 0 1 1.6 4.8v88a8 8 0 0 1 -1.6 4.8l-24 32a8 8 0 0 1 -6.4 3.2z" fill="#e0f7fa"/><path d="m200 288h-88a8 8 0 0 1 -4.8-1.6l-32-24a8 8 0 0 1 0-12.8l32-24a8 8 0 0 1 4.8-1.6h88a8 8 0 0 1 4.8 1.6l32 24a8 8 0 0 1 0 12.8l-32 24a8 8 0 0 1 -4.8 1.6z" fill="#e0f7fa"/><path d="m120 128h-48a8 8 0 0 1 -7.761-6.06l-16-64a8 8 0 0 1 9.7-9.7l64 16a8 8 0 0 1 6.061 7.76v48a8 8 0 0 1 -8 8z" fill="#b2ebf2"/><path d="m440 128h-48a8 8 0 0 1 -8-8v-48a8 8 0 0 1 6.06-7.761l64-16a8 8 0 0 1 9.7 9.7l-16 64a8 8 0 0 1 -7.76 6.061z" fill="#b2ebf2"/><path d="m256 440a8 8 0 0 1 -6.4-3.2l-24-32a8 8 0 0 1 -1.6-4.8v-88a8 8 0 0 1 1.6-4.8l24-32a8 8 0 0 1 12.8 0l24 32a8 8 0 0 1 1.6 4.8v88a8 8 0 0 1 -1.6 4.8l-24 32a8 8 0 0 1 -6.4 3.2z" fill="#e0f7fa"/><path d="m400 288h-88a8 8 0 0 1 -4.8-1.6l-32-24a8 8 0 0 1 0-12.8l32-24a8 8 0 0 1 4.8-1.6h88a8 8 0 0 1 4.8 1.6l32 24a8 8 0 0 1 0 12.8l-32 24a8 8 0 0 1 -4.8 1.6z" fill="#e0f7fa"/><circle cx="76" cy="76" fill="#e0f7fa" r="12"/><circle cx="412" cy="76" fill="#e0f7fa" r="12"/><circle cx="84" cy="404" fill="#e0f7fa" r="12"/><circle cx="404" cy="404" fill="#e0f7fa" r="12"/><circle cx="108" cy="252" fill="#fff" r="12"/><circle cx="252" cy="316" fill="#fff" r="12"/><circle cx="316" cy="252" fill="#fff" r="12"/><circle cx="252" cy="116" fill="#fff" r="12"/><path d="m121.94 64.239-4.927-1.232a91.705 91.705 0 0 1 -56.319 44.753l3.545 14.18a8 8 0 0 0 7.761 6.06h48a8 8 0 0 0 8-8v-48a8 8 0 0 0 -6.06-7.761z" fill="#80deea"/><path d="m403.5 95a91.776 91.776 0 0 1 -19.5-2.09v27.09a8 8 0 0 0 8 8h48a8 8 0 0 0 7.761-6.06l11.468-45.871a91.1 91.1 0 0 1 -55.729 18.931z" fill="#80deea"/><path d="m224 181.513v18.487a8 8 0 0 0 1.6 4.8l24 32a8 8 0 0 0 12.8 0l24-32a8 8 0 0 0 1.6-4.8v-64.968a91.614 91.614 0 0 1 -64 46.481z" fill="#b2ebf2"/><path d="m224 380.91v19.09a8 8 0 0 0 1.6 4.8l24 32a8 8 0 0 0 12.8 0l24-32a8 8 0 0 0 1.6-4.8v-71.034a91.665 91.665 0 0 1 -64 51.944z" fill="#b2ebf2"/><path d="m436.8 249.6-32-24a8 8 0 0 0 -4.8-1.6h-19.09a91.665 91.665 0 0 1 -51.944 64h71.034a8 8 0 0 0 4.8-1.6l32-24a8 8 0 0 0 0-12.8z" fill="#b2ebf2"/><path d="m236.8 249.6-32-24a8 8 0 0 0 -4.8-1.6h-33.718a91.465 91.465 0 0 1 -39.082 64h72.8a8 8 0 0 0 4.8-1.6l32-24a8 8 0 0 0 0-12.8z" fill="#b2ebf2"/><path d="m451.473 404.91a91.193 91.193 0 0 1 -63.973 26.09c-1.173 0-2.338-.03-3.5-.073v9.073a8 8 0 0 0 6.06 7.761l64 16a8 8 0 0 0 9.7-9.7z" fill="#80deea"/><path d="m68.5 432a92.161 92.161 0 0 1 -14.461-1.141l-5.8 23.2a8 8 0 0 0 9.7 9.7l64-16a8 8 0 0 0 6.061-7.759v-29.991a91.138 91.138 0 0 1 -59.5 21.991z" fill="#80deea"/></g></g></svg>