<?xml version="1.0" standalone="no"?>
<!DOCTYPE svg PUBLIC "-//W3C//DTD SVG 20010904//EN"
 "http://www.w3.org/TR/2001/REC-SVG-20010904/DTD/svg10.dtd">
<svg version="1.0" xmlns="http://www.w3.org/2000/svg"
 width="100.000000pt" height="100.000000pt" viewBox="0 0 100.000000 100.000000"
 preserveAspectRatio="xMidYMid meet">

<g transform="translate(0.000000,100.000000) scale(0.100000,-0.100000)"
fill="#000000" stroke="none">
<path d="M579 905 c-12 -13 -21 -14 -43 -5 -53 20 -62 16 -147 -62 -23 -21
-25 -61 -4 -78 8 -7 15 -18 15 -24 0 -7 11 -23 25 -36 29 -28 34 -70 8 -70
-12 0 -38 -37 -82 -118 -36 -64 -102 -173 -148 -241 -46 -68 -82 -125 -81
-126 2 -1 31 -12 66 -23 62 -21 63 -21 119 -1 56 19 56 19 124 -1 l69 -21 69
21 c68 20 68 20 124 1 56 -20 57 -20 119 1 35 11 64 22 66 23 1 1 -40 65 -90
141 -51 77 -118 186 -148 242 -37 69 -61 102 -72 102 -26 0 -22 40 7 73 13 15
30 27 38 27 7 0 22 6 33 14 10 8 30 12 44 10 32 -6 107 47 116 82 14 54 -63
102 -120 76 -14 -6 -28 -7 -37 -1 -22 13 -53 11 -70 -6z m65 -22 l0 -22 29 25
c35 29 66 31 101 3 36 -28 33 -50 -16 -93 -31 -28 -48 -36 -67 -33 -13 3 -35
-2 -48 -10 -20 -13 -29 -14 -51 -4 -21 10 -24 10 -15 0 9 -9 6 -19 -13 -44
-13 -17 -24 -42 -24 -53 0 -19 -6 -22 -40 -22 -34 0 -40 3 -40 22 0 11 -19 46
-41 76 -36 47 -41 59 -33 81 6 17 22 30 44 38 19 7 28 12 20 13 -11 0 -8 6 9
20 28 24 49 25 78 5 18 -13 22 -12 39 6 25 27 69 22 68 -8z m-45 -320 c12 -27
52 -97 88 -156 36 -60 62 -111 58 -115 -13 -14 -43 19 -101 114 -33 54 -67 99
-75 99 -15 0 -18 -47 -8 -130 3 -31 1 -40 -11 -40 -10 0 -20 20 -30 63 -8 34
-20 62 -26 62 -6 0 -15 -17 -20 -37 -5 -23 -15 -38 -24 -38 -17 0 -18 22 -6
98 12 67 -10 62 -53 -13 -19 -33 -40 -60 -48 -60 -20 0 -17 8 34 107 l48 93
76 0 75 0 23 -47z m-172 -125 c-2 -61 -1 -63 23 -63 20 0 28 8 37 35 11 34 12
34 12 7 1 -47 27 -97 51 -97 29 0 33 19 23 100 -5 38 -7 70 -3 70 3 0 30 -41
59 -91 64 -106 75 -119 106 -119 16 0 34 -15 60 -51 52 -73 52 -74 0 -89 -40
-11 -53 -11 -100 6 -53 17 -57 17 -125 0 -68 -18 -72 -18 -140 0 -68 17 -72
17 -125 0 -47 -17 -60 -17 -100 -6 -25 7 -44 16 -43 20 2 5 37 60 78 124 65
100 79 115 103 116 22 0 32 9 55 50 15 27 28 50 29 50 2 0 2 -28 0 -62z"/>
<path d="M475 830 c3 -5 8 -10 11 -10 2 0 4 5 4 10 0 6 -5 10 -11 10 -5 0 -7
-4 -4 -10z"/>
</g>
</svg>
