<?xml version="1.0" standalone="no"?>
<!DOCTYPE svg PUBLIC "-//W3C//DTD SVG 20010904//EN"
 "http://www.w3.org/TR/2001/REC-SVG-20010904/DTD/svg10.dtd">
<svg version="1.0" xmlns="http://www.w3.org/2000/svg"
 width="512.000000pt" height="512.000000pt" viewBox="0 0 512.000000 512.000000"
 preserveAspectRatio="xMidYMid meet">

<g transform="translate(0.000000,512.000000) scale(0.100000,-0.100000)"
fill="#000000" stroke="none">
<path d="M2410 5111 c-362 -23 -686 -112 -1009 -276 -238 -121 -452 -276 -646
-470 -349 -348 -597 -803 -695 -1275 -36 -178 -51 -328 -51 -530 0 -429 85
-783 277 -1161 382 -752 1121 -1270 1959 -1373 287 -35 526 -29 790 19 1027
190 1851 1013 2039 2039 156 844 -102 1680 -704 2284 -524 525 -1221 789
-1960 743z m505 -320 c459 -78 863 -277 1198 -591 303 -284 542 -695 640
-1101 49 -201 61 -309 61 -539 0 -230 -12 -338 -61 -539 -78 -325 -246 -653
-471 -921 -289 -346 -710 -611 -1152 -726 -240 -63 -595 -91 -820 -65 -424 49
-820 213 -1161 481 -254 199 -464 461 -618 771 -161 322 -231 625 -231 999 0
374 70 677 231 999 121 243 246 418 429 601 354 354 791 571 1300 645 139 21
497 13 655 -14z"/>
<path d="M2459 4470 c-302 -23 -524 -85 -779 -217 -552 -285 -934 -829 -1015
-1446 -103 -793 305 -1574 1015 -1940 292 -151 573 -219 915 -219 485 -1 966
203 1323 564 745 752 745 1944 0 2696 -389 392 -934 602 -1459 562z m366 -315
c978 -169 1578 -1160 1271 -2097 -145 -444 -481 -807 -916 -991 -156 -65 -294
-99 -490 -118 -301 -29 -576 23 -855 162 -160 79 -287 171 -420 304 -230 230
-376 501 -447 828 -19 88 -22 132 -22 317 0 184 3 230 22 317 49 227 144 445
270 623 131 185 347 376 547 485 159 87 382 160 560 184 95 13 370 5 480 -14z"/>
<path d="M2375 3815 c-284 -45 -522 -167 -721 -370 -200 -204 -322 -463 -358
-762 l-7 -53 248 0 248 0 95 190 c59 118 108 203 128 223 31 30 38 32 102 32
63 0 71 -3 100 -30 21 -20 87 -140 192 -350 l160 -320 167 330 c185 367 191
375 281 375 85 0 102 -20 218 -247 l102 -203 250 0 250 0 0 28 c0 51 -32 215
-57 291 -145 447 -534 786 -991 866 -104 18 -295 18 -407 0z"/>
<path d="M2840 2252 c-185 -366 -189 -372 -283 -372 -94 0 -99 6 -280 367 -89
178 -164 323 -167 323 -3 0 -27 -44 -55 -98 -77 -150 -53 -142 -432 -142 -295
0 -314 -1 -309 -17 3 -10 12 -47 21 -83 99 -393 429 -742 825 -874 189 -62
438 -83 617 -51 447 80 820 390 976 810 25 68 57 182 57 204 0 8 -90 11 -308
11 -379 0 -354 -8 -432 143 -30 59 -57 107 -60 107 -3 0 -79 -147 -170 -328z"/>
</g>
</svg>
